<svg width="48" height="48" viewBox="0 0 48 48" fill="none" xmlns="http://www.w3.org/2000/svg">
<path d="M47 24C47 36.7025 36.7025 47 24 47C11.2975 47 1 36.7025 1 24C1 11.2975 11.2975 1 24 1C36.7025 1 47 11.2975 47 24Z" stroke="#FFB13C" stroke-width="2"/>
<path d="M16.4111 28.4176L11.2922 21.3016L6.08865 28.4176H4.00159L10.6012 19.5822H11.9691L18.5264 28.4176H16.4111Z" fill="#FFB13C"/>
<path d="M19.3905 28.4176V27.1124H26.4836C27.311 27.1124 27.7246 26.8404 27.7246 26.2966V24.7153C27.7246 24.1714 27.311 23.8995 26.4836 23.8995H19.3905V19.5822H29.2758V20.8874H21.266V22.5943H26.4836C27.0477 22.5943 27.5272 22.6486 27.922 22.7574C28.3169 22.8578 28.6365 23.0042 28.8809 23.1967C29.1348 23.3807 29.3181 23.6025 29.4309 23.8618C29.5437 24.1212 29.6001 24.4099 29.6001 24.7278V26.284C29.6001 26.602 29.5437 26.8906 29.4309 27.15C29.3181 27.4094 29.1348 27.6353 28.8809 27.8277C28.6365 28.0118 28.3169 28.1582 27.922 28.267C27.5272 28.3674 27.0477 28.4176 26.4836 28.4176H19.3905Z" fill="#FFB13C"/>
<path d="M35.8326 28.4176V20.8874H30.629V19.5822H42.7706V20.8874H37.7081V28.4176H35.8326Z" fill="#FFB13C"/>
<path fill-rule="evenodd" clip-rule="evenodd" d="M10.371 19.1999H12.2002L18.9609 28.3093V26.73H26.4836C26.857 26.73 27.059 26.6667 27.1591 26.6009C27.2349 26.5511 27.295 26.473 27.295 26.2966V24.7153C27.295 24.5388 27.2349 24.4607 27.1591 24.4109C27.059 24.3451 26.857 24.2818 26.4836 24.2818H18.9609V19.1999H29.7054V21.2697H21.6956V22.212H26.4836C27.0742 22.212 27.5976 22.2684 28.0445 22.391C28.4805 22.5023 28.8579 22.67 29.159 22.9052C29.4644 23.1282 29.6915 23.4019 29.8315 23.7238C29.966 24.033 30.0297 24.3694 30.0297 24.7278V26.284C30.0297 26.6425 29.966 26.9788 29.8315 27.288C29.6912 27.6106 29.4639 27.888 29.1595 28.1187C28.8602 28.3442 28.4837 28.5125 28.049 28.6322L28.0401 28.6347C27.5955 28.7477 27.0739 28.7999 26.4836 28.7999H16.1761L11.2892 22.0065L6.32162 28.7999H3.2002L10.371 19.1999ZM10.8315 19.9645L4.80299 28.0353H5.85568L11.2952 20.5966L16.6462 28.0353H17.7278L11.738 19.9645H10.8315ZM19.82 19.9645V23.5172H26.4836C26.9376 23.5172 27.356 23.5898 27.6696 23.7959C28.0075 24.018 28.1542 24.3478 28.1542 24.7153V26.2966C28.1542 26.664 28.0075 26.9938 27.6696 27.2159C27.356 27.422 26.9376 27.4947 26.4836 27.4947H19.82V28.0353H26.4836C27.0192 28.0353 27.455 27.9876 27.7995 27.9005C28.1519 27.803 28.4141 27.6783 28.6028 27.5364C28.8058 27.3824 28.945 27.208 29.0303 27.012C29.1214 26.8025 29.1706 26.5615 29.1706 26.284V24.7278C29.1706 24.4504 29.1214 24.2094 29.0303 23.9998C28.9457 23.8054 28.8085 23.6373 28.6096 23.4931L28.5961 23.4833C28.4104 23.3371 28.1527 23.2137 27.804 23.125L27.795 23.1227C27.4532 23.0286 27.0192 22.9766 26.4836 22.9766H20.8364V20.5051H28.8462V19.9645H19.82ZM30.1994 19.1999H43.2002V21.2697H38.1377V28.7999H35.403V21.2697H30.1994V19.1999ZM31.0586 19.9645V20.5051H36.2621V28.0353H37.2785V20.5051H42.3411V19.9645H31.0586Z" fill="#FFB13C"/>
</svg>
