<svg width="1920" height="385" viewBox="0 0 1920 385" fill="none" xmlns="http://www.w3.org/2000/svg">
<g clip-path="url(#clip0)">
<rect y="-3031" width="1920" height="6340" fill="#151515"/>
<path d="M725.475 83.989C729.894 77.1385 737.49 73 745.642 73H1173.36C1181.51 73 1189.11 77.1385 1193.53 83.989L1379.33 371.989C1389.63 387.959 1378.17 409 1359.16 409H559.835C540.83 409 529.365 387.959 539.668 371.989L725.475 83.989Z" fill="black"/>
<path fill-rule="evenodd" clip-rule="evenodd" d="M1970 508C1970 494.745 1980.75 484 1994 484L2045.5 484C2058.75 484 2069.5 473.255 2069.5 460V254C2069.5 240.745 2058.75 230 2045.5 230L1353.59 230C1346.76 230 1340.25 232.915 1335.69 238.013L1273.2 307.987C1268.65 313.085 1262.14 316 1255.3 316H663.2C656.364 316 649.853 313.085 645.3 307.987L582.805 238.014C578.252 232.915 571.741 230.001 564.905 230.001L-127 230C-140.255 230 -151 240.746 -151 254L-151 460C-151 473.255 -140.255 484 -127 484L-75 484.001C-61.7452 484.001 -51 494.746 -51 508V2280C-51 2293.25 -40.2548 2304 -27 2304H1946C1959.25 2304 1970 2293.25 1970 2280V508Z" fill="white"/>
</g>
<defs>
<clipPath id="clip0">
<rect y="-3031" width="1920" height="6340" fill="white"/>
</clipPath>
</defs>
</svg>
