<svg width="24" height="24" viewBox="0 0 24 24" fill="none" xmlns="http://www.w3.org/2000/svg">
<path fill-rule="evenodd" clip-rule="evenodd" d="M24 12C24 18.6274 18.6274 24 12 24C5.37258 24 0 18.6274 0 12C0 5.37258 5.37258 0 12 0C18.6274 0 24 5.37258 24 12ZM8.03582 10.9008C6.83373 11.4257 5.5986 11.965 4.46919 12.5871L4.46911 12.5871C3.87936 13.0189 4.66325 13.3243 5.39859 13.6108C5.51549 13.6564 5.63117 13.7014 5.73991 13.7464C5.83039 13.7743 5.92241 13.8036 6.01566 13.8333C6.83349 14.0938 7.74543 14.3844 8.53941 13.9473C9.84369 13.1981 11.0746 12.3319 12.3045 11.4663C12.7074 11.1827 13.1103 10.8992 13.5156 10.6199C13.5346 10.6078 13.556 10.5939 13.5794 10.5787C13.9247 10.3549 14.7012 9.85153 14.414 10.5451C13.7348 11.2879 13.0073 11.9454 12.2758 12.6066C11.7828 13.0521 11.288 13.4993 10.805 13.9753C10.3843 14.3171 9.94753 15.0045 10.4186 15.4831C11.5035 16.2426 12.6054 16.9837 13.7067 17.7244C14.0651 17.9655 14.4234 18.2064 14.781 18.448C15.3871 18.9319 16.3343 18.5405 16.4676 17.7843C16.5268 17.4365 16.5863 17.0887 16.6458 16.7408C16.9746 14.8185 17.3035 12.8954 17.5941 10.9668C17.6336 10.6643 17.6783 10.3618 17.7231 10.0591C17.8317 9.32556 17.9404 8.59111 17.9743 7.85361C17.8868 7.11764 16.9944 7.27946 16.4978 7.44495C13.9452 8.41625 11.4181 9.45955 8.90099 10.5213C8.61585 10.6476 8.3268 10.7738 8.03582 10.9008Z" fill="#FFB13C"/>
</svg>
