<svg width="24" height="24" viewBox="0 0 24 24" fill="none" xmlns="http://www.w3.org/2000/svg">
<path fill-rule="evenodd" clip-rule="evenodd" d="M12 0C5.37258 0 0 5.37258 0 12C0 18.6274 5.37258 24 12 24C18.6274 24 24 18.6274 24 12C24 5.37258 18.6274 0 12 0ZM11.6658 10.169L11.6406 9.75381C11.5651 8.67761 12.2282 7.69462 13.2774 7.31329C13.6635 7.17771 14.3182 7.16076 14.7463 7.27939C14.9142 7.33024 15.2331 7.49972 15.4598 7.65225L15.8711 7.93189L16.3243 7.78784C16.5761 7.71157 16.9119 7.58446 17.063 7.49972C17.2057 7.42345 17.3316 7.38108 17.3316 7.40651C17.3316 7.55056 17.021 8.04206 16.7608 8.31323C16.4083 8.69456 16.509 8.72845 17.2224 8.47423C17.6505 8.33017 17.6589 8.33017 17.575 8.49118C17.5246 8.57592 17.2644 8.87251 16.9874 9.14368C16.5174 9.60975 16.4922 9.66059 16.4922 10.0504C16.4922 10.6521 16.2068 11.9062 15.9214 12.5926C15.3926 13.8807 14.2595 15.2111 13.1263 15.8805C11.5315 16.8211 9.40786 17.0584 7.61999 16.5076C7.02404 16.3212 6 15.8466 6 15.7619C6 15.7365 6.31057 15.7026 6.68829 15.6941C7.4773 15.6771 8.26631 15.4568 8.93781 15.067L9.39108 14.7959L8.87066 14.6179C8.13201 14.3637 7.46891 13.779 7.30103 13.2282C7.25067 13.0502 7.26746 13.0417 7.73751 13.0417L8.22434 13.0333L7.81305 12.8384C7.32621 12.5926 6.88134 12.1774 6.66311 11.7537C6.50362 11.4486 6.30218 10.6775 6.36093 10.6182C6.37772 10.5927 6.55399 10.6436 6.75544 10.7114C7.33461 10.9232 7.41015 10.8724 7.0744 10.5165C6.44487 9.87245 6.25181 8.91488 6.55399 8.00816L6.69668 7.60141L7.25067 8.15222C8.38383 9.26232 9.71843 9.92329 11.2461 10.1182L11.6658 10.169Z" fill="#FFB13C"/>
</svg>
