<svg width="24" height="24" viewBox="0 0 24 24" fill="none" xmlns="http://www.w3.org/2000/svg">
<path fill-rule="evenodd" clip-rule="evenodd" d="M0 12C0 5.37258 5.37258 0 12 0C18.6274 0 24 5.37258 24 12C24 18.6274 18.6274 24 12 24C5.37258 24 0 18.6274 0 12ZM15.1212 9.64284C15.202 9.64284 15.282 9.64364 15.3616 9.64804C14.9408 7.35484 12.5724 5.60004 9.714 5.60004C6.558 5.60004 4 7.73964 4 10.3788C4 11.9264 4.8792 13.302 6.2428 14.1752L6.2952 14.2084L5.7432 15.9376L7.8088 14.8856C7.8088 14.8856 7.8736 14.904 7.906 14.9136C8.4736 15.0716 9.0824 15.1572 9.714 15.1572C9.8428 15.1572 9.9708 15.152 10.098 15.1456C9.9808 14.782 9.9164 14.4 9.9164 14.0056C9.9164 11.5956 12.2476 9.64284 15.1212 9.64284ZM15.1648 18.0713C12.4984 18.0713 10.3364 16.2637 10.3364 14.0337C10.3364 11.8045 12.4984 9.99689 15.1648 9.99689C17.83 9.99689 19.9912 11.8045 19.9912 14.0337C19.9912 15.3417 19.248 16.5037 18.0964 17.2413L18.052 17.2689L18.5184 18.7305L16.774 17.8409C16.774 17.8409 16.7192 17.8573 16.6916 17.8645C16.2124 17.9985 15.698 18.0713 15.1648 18.0713Z" fill="#FFB13C"/>
<path d="M11.7024 7.9563C12.1456 7.9563 12.5044 8.3035 12.5044 8.7327C12.5044 9.1615 12.1456 9.5099 11.7024 9.5099C11.2588 9.5099 10.9004 9.1615 10.9004 8.7327C10.9004 8.3035 11.2588 7.9563 11.7024 7.9563Z" fill="#FFB13C"/>
<path d="M16.1661 12.6429C16.1661 12.2813 16.4693 11.9873 16.8437 11.9873C17.2185 11.9873 17.5217 12.2813 17.5217 12.6429C17.5217 13.0061 17.2185 13.3005 16.8437 13.3005C16.4693 13.3005 16.1661 13.0061 16.1661 12.6429Z" fill="#FFB13C"/>
<path d="M12.8062 12.6429C12.8062 12.2813 13.1102 11.9873 13.4842 11.9873C13.859 11.9873 14.1626 12.2813 14.1626 12.6429C14.1626 13.0061 13.859 13.3005 13.4842 13.3005C13.1102 13.3005 12.8062 13.0061 12.8062 12.6429Z" fill="#FFB13C"/>
<path d="M7.72556 9.5099C7.28236 9.5099 6.92316 9.1615 6.92316 8.7327C6.92316 8.3035 7.28236 7.9563 7.72556 7.9563C8.16876 7.9563 8.52876 8.3035 8.52876 8.7327C8.52876 9.1615 8.16876 9.5099 7.72556 9.5099Z" fill="#FFB13C"/>
</svg>
