<svg xmlns="http://www.w3.org/2000/svg" xmlns:xlink="http://www.w3.org/1999/xlink" width="254px" height="20px" viewBox="0 0 254 20" version="1.1">
    <!-- Generator: Sketch 49.3 (51167) - http://www.bohemiancoding.com/sketch -->
    <title>logo</title>
    <desc>Created with Sketch.</desc>
    <defs>
        <linearGradient x1="0%" y1="50%" x2="108.649554%" y2="50%" id="linearGradient-1">
            <stop stop-color="#FFC16F" offset="0%"/>
            <stop stop-color="#FF7D77" offset="100%"/>
        </linearGradient>
    </defs>
    <g id="Page-1" stroke="none" stroke-width="1" fill="none" fill-rule="evenodd">
        <g id="Home_page_Cryptovest_Desktop_1440_04_06" transform="translate(-592.000000, -31.000000)">
            <g id="header" transform="translate(0.000000, 20.000000)">
                <g id="logo" transform="translate(592.000000, 11.000000)">
                    <g id="Group-6" transform="translate(38.420168, 0.851064)" fill="#59405E">
                        <path d="M12.0888185,11.6590164 L15.478945,14.2585052 C13.906401,16.4922357 11.3309785,17.8723404 8.51425619,17.8723404 C3.81019757,17.8723404 0,14.0602459 0,9.36170213 C0,4.66315838 3.81019757,0.85106383 8.51425619,0.85106383 C11.3302847,0.85106383 13.9058463,2.23046831 15.4789261,4.46491357 L12.0888052,7.064398 C11.3146527,5.85626747 9.98036295,5.10638298 8.51425619,5.10638298 C6.17137966,5.10638298 4.26890756,7.00980226 4.26890756,9.36170213 C4.26890756,11.713602 6.17137966,13.6170213 8.51425619,13.6170213 C9.98071892,13.6170213 11.3150572,12.8666598 12.0888185,11.6590164 Z" id="Combined-Shape" fill-rule="nonzero"/>
                        <path d="M99.892437,5.11317719 L99.892437,17.8723404 L95.6235294,17.8723404 L95.6235294,5.11317719 L90.0984087,5.11317719 L90.0984087,0.844269623 L105.417558,0.844269623 L105.417558,5.11317719 L99.892437,5.11317719 Z" id="Combined-Shape"/>
                        <g id="Group-5" transform="translate(200.211765, 0.851064)">
                            <path d="M9.81848739,4.26211336 L9.81848739,17.0212766 L5.54957983,17.0212766 L5.54957983,4.26211336 L0.0244591454,4.26211336 L0.0244591454,-0.00679420704 L15.3436081,-0.00679420704 L15.3436081,4.26211336 L9.81848739,4.26211336 Z" id="Combined-Shape"/>
                        </g>
                        <g id="Group" transform="translate(43.115966, 0.851064)">
                            <path d="M5.18866403,-3.55271368e-15 L9.33879917,6.61548806 L13.4889343,-3.10862447e-15 L18.4011682,-3.55271368e-15 L11.5260504,10.9592238 L11.5260504,17.0212766 L7.25714286,17.0212766 L7.25714286,11.1275465 L0.276430124,-3.55271368e-15 L5.18866403,-3.55271368e-15 Z" id="Combined-Shape"/>
                        </g>
                        <g id="Group-2" transform="translate(23.052101, 0.851064)">
                            <path d="M11.2158169,12.5300782 L14.3363548,17.0212766 L9.3111343,17.0212766 L6.70324854,13.1914894 L4.26890756,13.1914894 L4.26890756,17.0212766 L0,17.0212766 L0,0 L4.26890756,0 L8.32436975,0 C11.9787312,-6.69158498e-16 14.9411765,2.95301548 14.9411765,6.59574468 C14.9411765,9.20497918 13.4212493,11.4603457 11.2158169,12.5300782 Z M4.26890756,4.25531915 L4.26890756,8.93617021 L8.32436975,8.93617021 C9.62107865,8.93617021 10.6722689,7.88832601 10.6722689,6.59574468 C10.6722689,5.30316335 9.62107865,4.25531915 8.32436975,4.25531915 L4.26890756,4.25531915 Z" id="Combined-Shape"/>
                        </g>
                        <g id="Group-3" transform="translate(68.729412, 0.851064)">
                            <path d="M4.26890756,0 L8.32436975,0 C11.9787312,-6.69158498e-16 14.9411765,2.95301548 14.9411765,6.59574468 C14.9411765,10.2384739 11.9787312,13.1914894 8.32436975,13.1914894 L4.26890756,13.1914894 L4.26890756,17.0212766 L0,17.0212766 L0,0 L4.26890756,0 Z M4.26890756,4.25531915 L4.26890756,8.93617021 L8.32436975,8.93617021 C9.62107865,8.93617021 10.6722689,7.88832601 10.6722689,6.59574468 C10.6722689,5.30316335 9.62107865,4.25531915 8.32436975,4.25531915 L4.26890756,4.25531915 Z" id="Combined-Shape"/>
                        </g>
                        <path d="M120.383193,17.8723404 C115.667888,17.8723404 111.845378,14.0619979 111.845378,9.36170213 C111.845378,4.66140638 115.667888,0.85106383 120.383193,0.85106383 C125.098498,0.85106383 128.921008,4.66140638 128.921008,9.36170213 C128.921008,14.0619979 125.098498,17.8723404 120.383193,17.8723404 Z M120.383193,13.6170213 C122.740846,13.6170213 124.652101,11.71185 124.652101,9.36170213 C124.652101,7.01155426 122.740846,5.10638298 120.383193,5.10638298 C118.025541,5.10638298 116.114286,7.01155426 116.114286,9.36170213 C116.114286,11.71185 118.025541,13.6170213 120.383193,13.6170213 Z" id="Oval-3" fill-rule="nonzero"/>
                        <path d="M151.636588,0.85106383 L142.394401,17.8723404 L133.616807,0.85106383 L138.660001,0.85106383 L142.494159,8.88257755 L146.526835,0.85106383 L151.636588,0.85106383 Z" id="Combined-Shape" fill-rule="nonzero"/>
                        <g id="Group-4" transform="translate(158.803361, 0.851064)">
                            <path d="M4.26890756,4.25531915 L4.26890756,6.38297872 L9.39159664,6.38297872 L9.39159664,10.6382979 L4.26890756,10.6382979 L4.26890756,12.7659574 L12.8067227,12.7659574 L12.8067227,17.0212766 L0,17.0212766 L0,12.7659574 L0,4.25531915 L0,0 L12.8067227,0 L12.8067227,4.25531915 L4.26890756,4.25531915 Z" id="Combined-Shape"/>
                        </g>
                        <path d="M189.065629,5.26283879 C189.011066,5.23483916 188.956281,5.20723844 188.90761,5.18311198 C188.626295,5.0492091 188.300158,4.92139255 187.929525,4.80021721 C187.587794,4.68849099 187.239466,4.63281483 186.882697,4.63281483 C186.222083,4.63281483 185.72798,4.74472329 185.397206,4.95353323 C185.117964,5.12981208 184.992446,5.35791566 184.992446,5.69044639 C184.992446,5.80294026 185.028887,5.90123146 185.111449,6.00166052 C185.224601,6.13930076 185.385638,6.27149709 185.596986,6.39599345 C185.829093,6.53271824 186.101147,6.66049466 186.413055,6.77857181 C186.738333,6.90171063 187.081362,7.01736563 187.460382,7.13136403 C188.540958,7.50378591 189.453975,7.88171745 190.200596,8.26647521 C190.962738,8.65923159 191.582479,9.08135468 192.05944,9.53591477 C192.549796,10.0032414 192.903366,10.5136588 193.114925,11.0661742 C193.321473,11.6056049 193.424202,12.1905642 193.424202,12.818404 C193.424202,13.5917528 193.247484,14.3243915 192.895382,15.0102949 C192.5474,15.688173 192.068516,16.2752998 191.461755,16.7688768 C190.860362,17.2580874 190.148322,17.6422005 189.328245,17.9218745 C188.50902,18.2012581 187.622513,18.3404255 186.670578,18.3404255 C185.816046,18.3404255 184.987897,18.2316666 184.18721,18.0140256 C183.389247,17.7971249 182.636749,17.4880776 181.921052,17.0815224 C181.426629,16.7851684 180.988135,16.4764474 180.610851,16.1533882 C180.370548,15.9476221 180.176829,15.7772005 180.029046,15.6414658 L179.619138,15.2649749 L183.218126,12.5053351 L183.506839,12.7437562 C183.584877,12.8082011 183.675408,12.8778355 183.778263,12.9524128 C184.032372,13.1366602 184.326119,13.3152099 184.659513,13.487567 C184.990438,13.6586472 185.338279,13.8038481 185.703295,13.923187 C186.046566,14.0354169 186.368732,14.0905894 186.670578,14.0905894 C186.938135,14.0905894 187.205969,14.0622592 187.4746,14.0054302 C187.731256,13.9511346 187.962076,13.8674538 188.168504,13.75477 C188.354318,13.6533387 188.50383,13.5218361 188.6215,13.3572641 C188.720567,13.2187106 188.772948,13.0355616 188.772948,12.7945646 C188.772948,12.7663756 188.75366,12.7111969 188.701519,12.6302236 C188.640009,12.5346996 188.511051,12.4096017 188.314827,12.265849 C188.104061,12.1114439 187.79781,11.9388929 187.39894,11.7521117 C186.990625,11.5609078 186.474655,11.3560171 185.855111,11.1393859 C185.097833,10.8800103 184.393501,10.5999157 183.742065,10.2989311 C183.068351,9.98765358 182.479972,9.61946537 181.978042,9.19372997 C181.46262,8.75654957 181.060724,8.25419894 180.775635,7.68852488 C180.485,7.11184736 180.341193,6.4519974 180.341193,5.71428571 C180.341193,4.96229782 180.497726,4.25421453 180.81053,3.59506083 C181.122462,2.93774494 181.566476,2.36744699 182.139242,1.8873923 C182.707227,1.41134413 183.386536,1.04144746 184.174092,0.776982637 C184.957714,0.513838736 185.816912,0.382978723 186.750123,0.382978723 C187.260599,0.382978723 187.800505,0.44207386 188.369921,0.559571956 C188.928229,0.674778002 189.473081,0.822974225 190.004377,1.00416405 C190.538027,1.18615717 191.040527,1.39754621 191.511734,1.63844934 C191.880935,1.82720243 192.204857,2.01997807 192.483744,2.21751807 L193.001374,2.58416273 L192.498055,2.9700982 L189.566869,5.21767955 L189.330627,5.39882618 L189.065629,5.26283879 Z" id="Combined-Shape" fill-rule="nonzero"/>
                    </g>
                    <g fill="url(#linearGradient-1)" fill-rule="nonzero" id="Fill-1">
                        <path d="M16.0991325,0 C15.147599,0 14.2854009,0.378465877 13.6568738,0.991895989 L13.6543305,0.991895989 C12.6888086,2.01943085 11.314124,2.66282284 9.78683809,2.66282284 C8.34856963,2.66282284 7.04573498,2.09228552 6.09261192,1.16756723 C5.4545472,0.451951335 4.52240683,0 3.48312754,0 C1.55939581,0 0,1.54666388 0,3.45507807 C0,5.36317687 1.55939581,6.91015614 3.48312754,6.91015614 C4.56500806,6.91015614 5.5321196,6.4206736 6.17082015,5.65270326 C7.11631314,4.77213932 8.38767373,4.23219467 9.78683809,4.23219467 C11.211118,4.23219467 12.5025076,4.79200878 13.4530874,5.70064227 C14.0917879,6.44085845 15.0401421,6.91015614 16.0991325,6.91015614 C18.0222283,6.91015614 19.5819421,5.36317687 19.5819421,3.45507807 C19.5819421,1.54666388 18.0222283,0 16.0991325,0 Z M6.42483793,9.94015392 C6.369202,11.8476219 7.88313528,13.4387556 9.80559538,13.4939486 C10.7568109,13.5210719 11.6295003,13.1672063 12.275513,12.5720687 L12.2783743,12.5723841 C13.2728269,11.5729188 14.6662687,10.9692658 16.1929188,11.0134201 C17.6302335,11.0547359 18.9162183,11.6621737 19.8416825,12.6137 C20.4590823,13.3476084 21.3778701,13.825737 22.4165136,13.8560142 C24.3392915,13.9108918 25.9428782,12.4093284 25.9985141,10.5018604 C26.05415,8.59439236 24.5405346,7.00325875 22.6174388,6.94806581 C21.5358762,6.91715776 20.5550941,7.37888613 19.8941392,8.12824857 C18.9232126,8.98105837 17.6372276,9.48473332 16.2386992,9.44467902 C14.8147371,9.40367854 13.5405152,8.80664862 12.6166408,7.87120716 C11.9995588,7.11301385 11.0658288,6.61659278 10.0071564,6.58631551 C9.97313901,6.58536934 9.93880369,6.58473857 9.90478627,6.58473857 C8.02747081,6.58473857 6.47952011,8.06674786 6.42483793,9.94015392 Z M13.411122,14.3250281 C12.465311,15.2052766 11.1942683,15.7455367 9.79542194,15.7455367 C8.37082402,15.7455367 7.07943446,15.1850918 6.12885475,14.2767737 C5.48983628,13.5368729 4.54211785,13.0669444 3.48312754,13.0669444 C1.55939581,13.0669444 0,14.6142391 0,16.5226532 C0,18.430752 1.55939581,19.9777314 3.48312754,19.9777314 C4.43434309,19.9777314 5.29622322,19.5989501 5.92475035,18.98552 L5.92761162,18.98552 C6.89281564,17.9579851 8.26781806,17.3149085 9.79542194,17.3149085 C11.2333724,17.3149085 12.5365251,17.8854458 13.4893302,18.8098487 C14.1277128,19.52578 15.0598532,19.9777314 16.0991325,19.9777314 C18.0222283,19.9777314 19.5819421,18.430752 19.5819421,16.5226532 C19.5819421,14.6142391 18.0222283,13.0669444 16.0991325,13.0669444 C15.0166161,13.0669444 14.0498225,13.5570577 13.411122,14.3250281 Z"/>
                    </g>
                </g>
            </g>
        </g>
    </g>
</svg>