<svg version="1.1"
	 xmlns="http://www.w3.org/2000/svg" xmlns:xlink="http://www.w3.org/1999/xlink" xmlns:a="http://ns.adobe.com/AdobeSVGViewerExtensions/3.0/"
	 x="0px" y="0px" width="100%" height="100%" viewBox="0 0 721 120" enable-background="new 0 0 721 120" xml:space="preserve">
<defs>
</defs>
<path d="M263.639,105.995h-20.036V14.521h20.036V105.995z"/>
<path d="M370.973,32.008h-40.64v73.987h-19.895V32.008H269.94V15.016h101.032V32.008z"/>
<path d="M477.952,69.25h-81.207v36.674h-20.037V37.248c0-7.6,4.625-13.429,13.877-17.488c7.127-3.162,15.104-4.744,23.93-4.744
	h19.684v16.992c-10.176,0-17.314,0.237-21.412,0.711c-10.695,1.185-16.041,3.813-16.041,7.887v11.439h81.207V69.25z"/>
<path d="M586.983,105.5h-64.002c-9.346,0-17.416-1.604-24.213-4.814c-8.732-4.248-13.098-10.525-13.098-18.834V39.088
	c0-8.59,4.531-14.985,13.594-19.187c6.938-3.257,15.293-4.886,25.063-4.886h20.32v16.992h-19.328
	c-13.217,0-19.824,2.346-19.824,7.034v13.003h81.488V69.25h-81.488v12.035c0,4.674,6.027,7.01,18.084,7.01h63.404V105.5z"/>
<path d="M721.048,106.137H693.47l-40.084-34.242l-40.061,34.242h-27.676l54.219-45.787L585.64,14.025h26.377l41.363,34.961
	l41.334-34.961h26.367l-54.186,46.319L721.048,106.137z"/>
<path d="M225.265,60.399c4.201-1.51,7.01-4.319,8.426-8.425c0.896-2.644,1.345-6.773,1.345-12.391
	c0-5.711-2.007-10.667-6.019-14.868c-3.87-4.012-8.92-6.749-15.15-8.213c-4.202-0.991-10.008-1.487-17.418-1.487H124.02v16.992
	h20.319h8.76h44.908c11.328,0,16.992,2.275,16.992,6.821v7.104c0,4.074-5.027,6.111-15.081,6.111h-46.819h-8.76H124.02V105.5h74.341
	c9.771,0,17.889-1.699,24.355-5.098c8.213-4.391,12.319-11.045,12.319-19.967c0-4.2-0.685-8.117-2.054-11.752
	C231.188,63.964,228.616,61.202,225.265,60.399z M214.716,81.923c-0.753,4.248-6.659,6.372-17.717,6.372h-52.943V69.25h54.426
	c10.494,0,15.951,2.029,16.375,6.088c0.095,0.756,0.143,1.818,0.143,3.187C214.999,79.988,214.904,81.121,214.716,81.923z"/>
<polygon fill="#CC2D30" points="47.845,14.118 23.843,0 0,14.118 23.922,27.923 23.922,55.688 47.845,42.041 "/>
<polygon fill="#CC2D30" points="103.848,46.434 79.847,32.315 56.002,46.434 79.925,60.238 79.925,88.004 103.848,74.356 "/>
<polygon fill="#CC2D30" points="47.845,78.592 23.843,64.474 0,78.592 23.922,92.396 23.922,120.162 47.845,106.515 "/>
</svg>
