<svg version="1.1" id="Layer_1" xmlns="http://www.w3.org/2000/svg" xmlns:xlink="http://www.w3.org/1999/xlink" x="0px" y="0px"
	 width="24px" height="24px" viewBox="0 0 24 24" enable-background="new 0 0 24 24" xml:space="preserve">
<g>
	<g>
		<path fill="#999999" d="M19.006,8.238h-1.308V7.697C17.698,4.562,15.146,2,12.001,2C8.855,2,6.302,4.551,6.302,7.697v0.541H4.994
			c-0.833,0-1.502,0.671-1.502,1.502v10.758c0,0.832,0.67,1.501,1.502,1.501h14.012c0.832,0,1.502-0.669,1.502-1.501V9.74
			C20.509,8.909,19.839,8.238,19.006,8.238z M13.081,16.897v1.33c0,0.595-0.486,1.08-1.081,1.08c-0.594,0-1.081-0.486-1.081-1.08
			v-1.33c-0.768-0.39-1.308-1.189-1.308-2.107c0-1.309,1.071-2.369,2.39-2.369c1.318,0,2.389,1.06,2.389,2.369
			C14.389,15.708,13.85,16.508,13.081,16.897z M15.535,8.648h-7.06v-0.41V7.697c0-1.946,1.579-3.535,3.535-3.535
			s3.535,1.579,3.535,3.535v0.541v0.41H15.535z"/>
	</g>
</g>
</svg>
