<svg version="1.1" id="Layer_1" xmlns="http://www.w3.org/2000/svg" xmlns:xlink="http://www.w3.org/1999/xlink" x="0px" y="0px"
	 width="24px" height="24px" viewBox="0 0 24 24" enable-background="new 0 0 24 24" xml:space="preserve">
<g transform="translate(0,-952.36218)">
	<path fill="#999999" d="M2.048,957.291c-0.085,0-0.167,0.013-0.246,0.032l9.724,8.708c0.223,0.201,0.728,0.201,0.949,0l9.724-8.708
		c-0.079-0.019-0.162-0.032-0.246-0.032H2.048z M1.041,958.059C1.017,958.148,1,958.243,1,958.338v12.047
		c0,0.094,0.019,0.185,0.041,0.271l6.998-6.334L1.041,958.059L1.041,958.059z M22.959,958.059l-6.998,6.262l6.998,6.334
		c0.023-0.086,0.041-0.176,0.041-0.27v-12.048C23,958.243,22.983,958.148,22.959,958.059L22.959,958.059z M8.824,965.025
		l-7.03,6.367c0.083,0.019,0.167,0.04,0.254,0.04h19.904c0.087,0,0.172-0.021,0.253-0.04l-7.029-6.367l-1.996,1.783
		c-0.667,0.597-1.691,0.597-2.357,0L8.824,965.025z"/>
</g>
</svg>
