<svg version="1.1" id="Layer_1" xmlns="http://www.w3.org/2000/svg" xmlns:xlink="http://www.w3.org/1999/xlink" x="0px" y="0px"
	 width="24px" height="24px" viewBox="0 0 24 24" enable-background="new 0 0 24 24" xml:space="preserve">
<g>
	<path fill="#999999" d="M12,2C6.485,2,2,6.485,2,12c0,5.514,4.485,10,10,10s10-4.486,10-10C22,6.485,17.515,2,12,2z M3.802,8.526
		L4.02,8.271l0.363-0.327l0.108,0.219L4.237,8.435L4.31,8.798L4.4,9.361l0.127,0.726l-0.599-0.018l-0.2-0.399l0.146-0.382
		L3.802,8.526z M3.36,8.27L3.328,8.7L3.06,8.83l0.276,0.139v0.374L3.133,9.514L2.881,9.521L2.686,9.644L2.637,9.639
		c0.096-0.381,0.217-0.753,0.356-1.114L3.36,8.27z M2.353,11.631c0.014-0.364,0.046-0.725,0.1-1.078l0.26-0.012l-0.036,0.636
		l-0.291,0.454H2.353z M18.261,19.343l0.222-0.379v-0.291l-0.555,0.695l-0.185,0.086v-0.279l0.044-0.167l0.211-0.185l-0.334-0.194
		l-0.326,0.247l-0.097,0.123l-0.246,0.176l-0.149-0.149l-0.159-0.009c0,0-0.325,0.378-0.36,0.438c-0.035,0.059-0.185,0-0.185,0
		l-0.282,0.126l-0.255,0.281l-0.476,0.141l-0.678,0.237l-0.22,0.396l-0.63,0.695l0.286-0.079l0.634-0.141l0.502-0.035l0.064,0.071
		c-0.971,0.329-2.008,0.51-3.088,0.51c-2.404,0-4.604-0.886-6.296-2.345v-0.063L5.611,18.89l-0.369-0.38l-0.678-0.749l-0.062-0.473
		l-0.011-0.287l0.082-0.38l0.144-0.309v-0.574l-0.01-0.514l-0.103-0.226l-0.4,0.112H3.846l-0.441-0.656L3.168,14.28l-0.072-0.349
		L2.87,13.705v-0.441l-0.134-0.154l-0.03-0.216L2.572,12.36v-0.246l0.236,0.554l0.257,0.359v0.391l0.153,0.226l0.247,0.514
		l0.338,0.554l0.709-0.441l0.134-0.257l0.595-0.38l0.011-0.246l0.215-0.421l-0.092-0.257l-0.38-0.112l-0.257-0.268l-0.174,0.298
		H4.226l-0.052-0.236l-0.153,0.062l-0.052-0.235L3.65,11.806l0.072-0.236h0.236l0.246,0.339l0.277,0.154L4.749,12l0.308,0.278
		l0.462,0.041l0.894,0.041l0.267,0.216l0.277,0.123l0.298,0.01l-0.236,0.123l0.236,0.288l0.308,0.103l0.154-0.339V13.5l0.811,1.386
		l0.637,0.739c0,0,0.257-0.298,0.298-0.35c0.041-0.051,0-0.349,0-0.349v-0.523l0.175-0.359l0.729-0.698l0.308-0.359l0.657-0.246
		l0.277-0.041L12,13.089l0.346,0.555l0.133,0.369l0.441-0.185l0.165,0.298l0.246,0.698l-0.093,0.615l0.103,0.072l0.144,0.123
		l0.195,0.287l0.123,0.483l0.575,0.349l-0.082-0.544l-0.103-0.298l-0.421-0.226l-0.052-0.241l-0.185-0.159l-0.051-0.134l0.168-0.545
		l0.286,0.154l0.705,0.683l0.132-0.22l0.507-0.11l0.331-0.309l-0.265-0.749l-0.572-0.396v-0.484l0.462-0.242l0.463,0.242l0.11-0.33
		l0.814-0.154L17.42,12l0.242-0.982l-0.507-1.014L16.781,9.63l0.639-0.265l-0.265-0.132l-0.551,0.198l-0.396-0.396l0.44-0.64
		l0.287,0.331l0.396-0.022l0.154,0.484l0.44,0.198l0.265,0.617l0.22-0.198V9.343l-0.507-0.528l0.066-0.419l0.044-0.308h0.484
		l0.133-0.573l-0.309-1.3L17.53,5.334l-0.958-0.265l-0.231-0.946l0.463-0.331l-0.132-0.24c2.97,1.649,4.985,4.817,4.985,8.448
		C21.657,14.938,20.337,17.57,18.261,19.343z"/>
	<polygon fill="#999999" points="9.637,15.328 9.584,15.451 9.61,15.856 9.777,16.015 9.962,15.795 9.918,15.61 	"/>
	<polygon fill="#999999" points="14.521,17.353 14.196,17.027 13.94,16.728 13.466,16.341 13.034,16.015 12.99,16.015 
		12.682,16.015 12.911,16.261 13.034,16.35 13.351,16.666 13.483,16.957 13.809,17.537 14.223,17.863 14.521,17.67 	"/>
	<polygon fill="#999999" points="15.517,18.074 15.103,17.995 14.883,17.995 14.645,17.925 14.451,17.969 14.451,18.065 
		14.839,18.232 15.155,18.153 15.596,18.232 15.912,18.339 16.405,18.392 16.149,18.158 	"/>
	<path fill="#999999" d="M16.774,18.444c0,0,0.062,0.097,0.088,0.105c0.027,0.009,0.52-0.265,0.52-0.265h-0.237L16.774,18.444z"/>
	<polygon fill="#999999" points="15.428,17.537 16.186,17.608 16.344,17.273 16.555,16.886 16.774,16.815 16.774,16.561 
		16.774,16.279 16.995,16.094 16.995,15.918 16.774,15.769 16.511,16.015 16.167,16.19 15.684,16.631 15.366,16.631 15.182,16.939 
		15.252,17.177 	"/>
	<polygon fill="#999999" points="17.232,16.833 17.787,16.833 17.131,16.688 16.951,17.027 16.476,17.52 16.572,17.925 
		16.828,17.563 16.995,17.863 17.145,17.696 17.145,17.265 17.461,17.027 17.078,17.027 	"/>
	<polygon fill="#999999" points="18.869,17.163 18.737,17.01 18.482,16.939 18.482,17.194 18.702,17.388 	"/>
	<path fill="#999999" d="M19.006,17.307l-0.137,0.081l-0.387,0.044v0.088l0.272,0.089c0,0,0.044,0.158,0.044,0.211
		s-0.123,0.264-0.123,0.264l0.123,0.309l0.256-0.105l0.167-0.128l0.308-0.172v-0.493l-0.193-0.187H19.006z"/>
	<polygon fill="#999999" points="17.559,17.608 17.787,17.581 17.831,17.388 17.69,17.388 	"/>
	<polygon fill="#999999" points="17.963,17.498 18.007,17.608 18.183,17.572 18.298,17.388 18.139,17.388 	"/>
	<path fill="#999999" d="M18.13,15.398l-0.299,0.115l-0.137,0.158v0.158l0.269-0.062v0.167l0.3,0.079c0,0,0.044-0.062,0.035-0.088
		c-0.01-0.026,0.001-0.387,0.001-0.387l0.061-0.141l-0.062-0.089L18.13,15.398z"/>
	<polygon fill="#999999" points="17.694,14.527 17.937,14.527 18.027,14.677 18.191,14.677 18.139,14.439 17.928,14.335 
		17.787,14.281 17.787,14.132 17.884,13.99 17.901,13.938 17.91,13.806 17.937,13.639 17.857,13.586 17.694,13.586 17.549,13.806 
		17.443,14.008 17.443,14.264 17.65,14.378 	"/>
	<polygon fill="#999999" points="18.027,14.924 18.027,15.161 18.191,15.161 18.253,14.998 18.253,14.836 18.027,14.836 	"/>
	<polygon fill="#999999" points="17.559,14.888 17.694,15.038 17.787,14.95 17.787,14.836 17.752,14.721 17.559,14.624 	"/>
	<polygon fill="#999999" points="17.171,15.372 17.303,15.24 17.303,15.117 17.25,15.038 17.206,15.082 16.934,15.311 
		16.828,15.381 16.995,15.566 	"/>
	<polygon fill="#999999" points="15.895,13.63 15.895,13.458 15.824,13.383 15.49,13.242 15.401,13.444 15.534,13.674 15.71,13.674 
			"/>
	<path fill="#999999" d="M17.559,12.847c0.044,0,0.114-0.106,0.114-0.106l0.021-0.325c0,0,0.084-0.079,0.093-0.105s0-0.265,0-0.265
		l-0.114,0.07l-0.115,0.194l-0.044,0.308C17.515,12.617,17.515,12.847,17.559,12.847z"/>
	<path fill="#999999" d="M6.397,19.083l-0.045-0.181l-0.286-0.21l0.045,0.203l-0.045,0.3l0.248,0.36c0,0,0.301,0.331,0.338,0.354
		c0.038,0.022,0.338,0.21,0.338,0.21H7.2l-0.495-0.616L6.397,19.083z"/>
	<path fill="#999999" d="M19.008,7.091c0,0,0.066-0.106,0.066-0.146S18.78,6.396,18.78,6.396l-0.073-0.454l-0.368-0.134L18.5,6.196
		l0.187,0.681L19.008,7.091z"/>
	<path fill="#999999" d="M19.168,7.879c0,0.094,0.026,0.281,0.026,0.281h0.228c0,0,0.026,0.026,0.066,0
		c0.04-0.027,0.334-0.308,0.334-0.308l-0.066-0.147V6.957l-0.214,0.374c0,0-0.026,0.121-0.06,0.121
		c-0.034,0-0.261-0.121-0.261-0.121l-0.08,0.04l0.053,0.228C19.194,7.599,19.168,7.785,19.168,7.879z"/>
	<path fill="#999999" d="M19.96,9.272l-0.006-0.329c0,0-0.218-0.587-0.243-0.587s-0.229,0.071-0.229,0.071l0.058,0.167l0.152,0.43
		l-0.105,0.354l-0.198,0.03v0.335h-0.313l-0.218,0.237l0.07,0.264l0.288-0.213l0.203-0.061l0.146,0.237c0,0,0.111-0.07,0.127-0.137
		c0.015-0.065,0.142-0.223,0.156-0.223c0.016,0,0.197-0.167,0.197-0.167L19.96,9.272z"/>
	<polygon fill="#999999" points="18.876,10.813 19.079,10.791 19.079,10.549 19.018,10.346 18.714,10.376 18.856,10.543 	"/>
	<polygon fill="#999999" points="19.408,10.245 19.307,10.158 19.17,10.27 19.238,10.427 19.408,10.427 	"/>
	<path fill="#999999" d="M12.202,14.831c0-0.058-0.075-0.273-0.075-0.273L12,14.393V14.9l0.075,0.261h0.178
		C12.253,15.161,12.202,14.889,12.202,14.831z"/>
	<polygon fill="#999999" points="12.329,15.892 12.508,15.769 12.253,15.409 	"/>
</g>
</svg>
